<mxfile host="Electron" modified="2024-03-17T19:22:30.364Z" agent="Mozilla/5.0 (Windows NT 10.0; Win64; x64) AppleWebKit/537.36 (KHTML, like Gecko) draw.io/23.1.5 Chrome/120.0.6099.109 Electron/28.1.0 Safari/537.36" etag="FVPWJJ89uj59MCjmMhxY" version="23.1.5" type="device">
  <diagram name="Страница — 1" id="otGqDrfL63iMfPq_JGB5">
    <mxGraphModel dx="593" dy="1055" grid="1" gridSize="10" guides="1" tooltips="1" connect="1" arrows="1" fold="1" page="1" pageScale="1" pageWidth="827" pageHeight="1169" math="0" shadow="0">
      <root>
        <mxCell id="0" />
        <mxCell id="1" parent="0" />
        <mxCell id="VZghngZkQBJUcuiyrzO2-8" style="edgeStyle=orthogonalEdgeStyle;rounded=0;orthogonalLoop=1;jettySize=auto;html=1;endArrow=none;endFill=0;" parent="1" source="WHX9X19V2RPBtK70Wf1E-2" target="VZghngZkQBJUcuiyrzO2-6" edge="1">
          <mxGeometry relative="1" as="geometry">
            <mxPoint x="330" y="150" as="targetPoint" />
          </mxGeometry>
        </mxCell>
        <mxCell id="VZghngZkQBJUcuiyrzO2-9" style="edgeStyle=orthogonalEdgeStyle;rounded=0;orthogonalLoop=1;jettySize=auto;html=1;endArrow=none;endFill=0;" parent="1" source="VZghngZkQBJUcuiyrzO2-2" target="WHX9X19V2RPBtK70Wf1E-2" edge="1">
          <mxGeometry relative="1" as="geometry" />
        </mxCell>
        <mxCell id="VZghngZkQBJUcuiyrzO2-2" value=":Statistics" style="rounded=0;whiteSpace=wrap;html=1;fontStyle=4;fontSize=14;fontFamily=Times New Roman;" parent="1" vertex="1">
          <mxGeometry x="320" y="130" width="120" height="60" as="geometry" />
        </mxCell>
        <mxCell id="VZghngZkQBJUcuiyrzO2-11" style="edgeStyle=orthogonalEdgeStyle;rounded=0;orthogonalLoop=1;jettySize=auto;html=1;entryX=0;entryY=0.5;entryDx=0;entryDy=0;endArrow=none;endFill=0;" parent="1" source="VZghngZkQBJUcuiyrzO2-3" target="VZghngZkQBJUcuiyrzO2-5" edge="1">
          <mxGeometry relative="1" as="geometry" />
        </mxCell>
        <mxCell id="VZghngZkQBJUcuiyrzO2-3" value=":Admin" style="rounded=0;whiteSpace=wrap;html=1;fontStyle=4;fontSize=14;fontFamily=Times New Roman;" parent="1" vertex="1">
          <mxGeometry x="80" y="280" width="120" height="60" as="geometry" />
        </mxCell>
        <mxCell id="VZghngZkQBJUcuiyrzO2-10" style="edgeStyle=orthogonalEdgeStyle;rounded=0;orthogonalLoop=1;jettySize=auto;html=1;endArrow=none;endFill=0;" parent="1" source="VZghngZkQBJUcuiyrzO2-6" target="VZghngZkQBJUcuiyrzO2-3" edge="1">
          <mxGeometry relative="1" as="geometry">
            <mxPoint x="270" y="180" as="sourcePoint" />
            <Array as="points">
              <mxPoint x="580" y="380" />
              <mxPoint x="170" y="380" />
            </Array>
          </mxGeometry>
        </mxCell>
        <mxCell id="VZghngZkQBJUcuiyrzO2-12" style="edgeStyle=orthogonalEdgeStyle;rounded=0;orthogonalLoop=1;jettySize=auto;html=1;entryX=0;entryY=0.5;entryDx=0;entryDy=0;endArrow=none;endFill=0;" parent="1" source="VZghngZkQBJUcuiyrzO2-5" target="VZghngZkQBJUcuiyrzO2-6" edge="1">
          <mxGeometry relative="1" as="geometry" />
        </mxCell>
        <mxCell id="VZghngZkQBJUcuiyrzO2-5" value=":User" style="rounded=0;whiteSpace=wrap;html=1;fontStyle=4;fontSize=14;fontFamily=Times New Roman;" parent="1" vertex="1">
          <mxGeometry x="320" y="280" width="120" height="60" as="geometry" />
        </mxCell>
        <mxCell id="VZghngZkQBJUcuiyrzO2-6" value="&lt;span style=&quot;font-size: 14px;&quot;&gt;:Trip&lt;/span&gt;" style="rounded=0;whiteSpace=wrap;html=1;fontStyle=4;fontSize=14;fontFamily=Times New Roman;" parent="1" vertex="1">
          <mxGeometry x="520" y="280" width="120" height="60" as="geometry" />
        </mxCell>
        <mxCell id="WHX9X19V2RPBtK70Wf1E-2" value="&lt;span style=&quot;font-size: 14px;&quot;&gt;:Activity&lt;/span&gt;" style="rounded=0;whiteSpace=wrap;html=1;fontStyle=4;fontSize=14;fontFamily=Times New Roman;" vertex="1" parent="1">
          <mxGeometry x="520" y="130" width="120" height="60" as="geometry" />
        </mxCell>
      </root>
    </mxGraphModel>
  </diagram>
</mxfile>
